PathFileType	4	(X/Y/Z)	walk-thru1-1-TP.trc
DataRate	CameraRate	NumFrames	NumMarkers	Units	OrigDataRate	OrigDataStartFrame	OrigNumFrames
120.00	120.00	       4	60	mm	120.00	227	       452
Frame#	Time	Top.Head			Front.Head			Rear.Head			Jaw			C7			R.Clavicle			L.Clavicle			R.Shoulder			L.Shoulder			R.Scapula			L.Scapula			R.Scap.Inf			R.Biceps.Lateral			R.Elbow			R.Elbow.Medial			R.Forearm			R.Ulna			R.Radius			R.Wrist			R.Thumb.M1			R.Thumb.M2			R.Thumb.M3			R.Finger3.M1			R.Finger3.M2			R.Finger3.M3			L.Biceps.Lateral			L.Elbow			L.Elbow.Medial			L.Forearm			L.Ulna			L.Radius			L.Wrist			L.Thumb.M1			L.Thumb.M2			L.Thumb.M3			L.Finger3.M1			L.Finger3.M2			L.Finger3.M3			V.Sacral			R.ASIS			L.ASIS			R.Thigh			R.Thigh.Front			R.Knee			R.Knee.Medial			R.Shank			R.Ankle			R.Ankle.Medial			R.Heel			R.Toe			R.MedFoot			L.Thigh			L.Knee			L.Knee.Medial			L.Shank			L.Ankle			L.Ankle.Medial			L.Heel			L.Toe			L.MedFoot			V_mid_ASIS			V_R_Knee_JC			V_L_Knee_JC			V_R_Elbow_JC			V_L_Elbow_JC			V_R_Ankle_JC			V_L_Ankle_JC			V_R_Wrist_JC			V_L_Wrist_JC			V_R_ScaTrpz_1stMC_JC			V_R_1stMC_1stPP_JC			V_R_1stPP_1stDP_JC			V_R_LunCap_3rdMC_JC			V_R_3rdMC_3rdPP_JC			V_R_3rdPP_3rdMP_JC			V_R_3rdMP_3rdDP_JC			V_L_ScaTrpz_1stMC_JC			V_L_1stMC_1stPP_JC			V_L_1stPP_1stDP_JC			V_L_LunCap_3rdMC_JC			V_L_3rdMC_3rdPP_JC			V_L_3rdPP_3rdMP_JC			V_L_3rdMP_3rdPP_JC			V_ROOT_JC			V_R_Hip_JC			V_L_Hip_JC			V_R_GlenHum_JC			V_L_GlenHum_JC			V_ForeHead_Ctr			V_Vertex			V_Sagit_Lambdoid_Suture			V_R_FrontoTemp			V_L_FrontoTemporal			V_R_ParietalOccip			V_L_ParietalOcciptal			V_R_Temporal			V_L_Temporal			V_mid_FrontRearHead			V_mid_RLGlenHumCtrs			V_C7_vert			V_C1_vert			V_Mid_Hip			
		X1	Y1	Z1	X2	Y2	Z2	X3	Y3	Z3	X4	Y4	Z4	X5	Y5	Z5	X6	Y6	Z6	X7	Y7	Z7	X8	Y8	Z8	X9	Y9	Z9	X10	Y10	Z10	X11	Y11	Z11	X12	Y12	Z12	X13	Y13	Z13	X14	Y14	Z14	X15	Y15	Z15	X16	Y16	Z16	X17	Y17	Z17	X18	Y18	Z18	X19	Y19	Z19	X20	Y20	Z20	X21	Y21	Z21	X22	Y22	Z22	X23	Y23	Z23	X24	Y24	Z24	X25	Y25	Z25	X26	Y26	Z26	X27	Y27	Z27	X28	Y28	Z28	X29	Y29	Z29	X30	Y30	Z30	X31	Y31	Z31	X32	Y32	Z32	X33	Y33	Z33	X34	Y34	Z34	X35	Y35	Z35	X36	Y36	Z36	X37	Y37	Z37	X38	Y38	Z38	X39	Y39	Z39	X40	Y40	Z40	X41	Y41	Z41	X42	Y42	Z42	X43	Y43	Z43	X44	Y44	Z44	X45	Y45	Z45	X46	Y46	Z46	X47	Y47	Z47	X48	Y48	Z48	X49	Y49	Z49	X50	Y50	Z50	X51	Y51	Z51	X52	Y52	Z52	X53	Y53	Z53	X54	Y54	Z54	X55	Y55	Z55	X56	Y56	Z56	X57	Y57	Z57	X58	Y58	Z58	X59	Y59	Z59	X60	Y60	Z60	

227	1.883	84.74804	26.87686	1549.51379	-23.12288	27.71479	1456.51086	191.08453	29.13066	1462.00745	-1.65887	37.53286	1312.67297	200.30679	43.17276	1356.12329	117.44420	154.04482	1265.23669	100.91800	-62.31580	1277.95313	169.91066	227.79050	1257.27271	148.65446	-155.79684	1277.20020	248.18529	126.87560	1277.40320	248.37769	-56.89755	1282.45325	295.15503	106.19748	1195.82458	168.00450	276.39984	1113.72876	230.62152	285.60571	960.01727	253.45927	212.57983	950.82214	170.64795	285.98306	872.48145	219.82658	307.06802	795.66412	160.16429	271.43640	734.99396	177.64095	307.71823	701.12970	150.49034	270.64148	676.99091	151.35854	251.89781	640.53644	155.61241	240.42212	601.06903	181.24065	317.30328	621.24036	195.37709	294.73709	577.03998	215.84613	271.55478	547.85101	150.19846	-220.70058	1132.38232	184.71886	-238.90831	984.79425	208.64275	-163.60912	971.54517	93.30315	-224.51270	930.19104	95.67586	-263.66476	838.35858	37.78467	-208.86389	801.76776	28.59049	-256.94891	777.63983	3.88337	-216.47296	769.04724	-14.31201	-194.54791	732.98108	-21.38503	-188.49503	681.80353	-8.42400	-262.44617	696.11438	-14.91949	-250.04030	657.51349	-8.90348	-219.87956	621.68359	301.14182	48.39298	886.35443	100.72746	182.61189	949.79517	135.83229	-133.12035	942.22375	10.76285	213.76378	581.30493	-80.19014	137.82712	518.98724	-46.86430	174.72797	455.13885	-52.75434	64.05262	450.98941	-69.10977	129.95604	284.72626	-19.28836	149.46130	64.78905	-35.59990	59.44992	81.96907	38.55507	96.08669	39.37471	-162.51918	122.73071	44.24292	-105.89199	80.77751	65.34405	199.36960	-160.67953	572.44055	211.76279	-137.26524	432.96365	187.54076	-19.65459	410.34238	274.90378	-76.94156	244.67093	410.30441	-92.03768	94.07971	386.52185	-2.29662	105.99797	471.53650	-38.72873	85.57706	272.86227	-65.01808	38.41782	322.58667	-27.14837	68.64220																																																																																																																															
228	1.892	78.93407	29.13762	1551.00757	-29.32256	28.11769	1457.83667	184.89635	31.57223	1462.15588	-8.12512	39.69062	1314.50330	194.09451	45.28636	1356.15271	110.45449	156.68666	1265.74609	95.46532	-60.04893	1278.48047	163.99818	230.09087	1257.23389	142.19254	-155.31094	1278.01343	242.09917	128.54865	1277.33289	240.51355	-54.87011	1281.50378	289.38443	109.16433	1195.41931	159.87262	278.01566	1113.07825	220.90237	288.14597	959.98053	244.73894	215.19756	950.09570	159.62239	288.15540	872.06714	208.45822	310.09659	795.42603	149.43475	272.53403	734.38184	165.03183	310.10095	701.64496	138.63348	271.33279	677.17841	137.72078	253.87621	640.64917	143.81491	241.59982	600.68787	168.88132	319.32544	620.93213	182.55205	294.64832	576.47540	203.06522	273.18887	547.18982	145.58154	-218.33067	1132.88806	179.77191	-238.26018	985.73560	203.16270	-159.51843	971.71417	88.75767	-222.61046	930.93304	91.62835	-262.08304	838.95728	34.37154	-207.16595	801.84827	24.38586	-256.03326	777.87854	-0.31332	-215.11923	768.85620	-15.47307	-193.70149	731.51013	-24.88855	-187.18712	682.01990	-12.94514	-260.92548	696.24231	-18.26861	-248.03793	657.43762	-12.66558	-217.81076	621.67548	293.68634	49.41336	886.29407	93.06328	183.71466	949.87140	128.36887	-131.82428	942.37671	5.72717	215.61353	582.35345	-84.56503	139.46165	519.21277	-51.93056	174.83069	456.03015	-59.41899	65.38712	451.65741	-72.12328	129.32751	284.33679	-19.23334	149.57986	64.23358	-35.63680	59.65983	81.94796	39.16901	97.35361	39.51785	-162.97948	125.23593	43.35434	-106.20386	80.72933	65.75401	189.77299	-160.94930	572.26685	202.72314	-138.99855	433.11960	177.39423	-21.49802	409.36389	269.29132	-78.06433	245.43246	407.90076	-92.16775	97.44755	384.55978	-3.41802	109.80773	469.02750	-39.33136	91.54608	272.31955	-65.21783	38.31666	320.38785	-27.26823	69.67104																																																																																																																															
229	1.900	73.04614	30.56807	1551.72815	-34.74635	29.98675	1458.03821	179.26360	32.69303	1462.66077	-14.03897	40.65309	1315.43640	187.93785	46.85449	1356.71228	104.60876	158.05502	1266.32715	88.91047	-58.36959	1279.71033	156.63190	232.60303	1257.33960	136.52020	-152.21361	1278.88916	236.23631	130.04396	1277.05774	234.69290	-52.57603	1281.91528	282.82260	110.69771	1195.24146	152.65485	280.55261	1113.03357	209.87723	290.79108	959.29254	235.02562	217.33701	950.48151	149.71640	290.11871	871.96637	197.76765	311.34628	794.46851	137.70508	274.62485	734.41290	153.41573	311.64441	700.66162	127.42902	273.16547	676.92474	126.36330	254.88658	641.46674	133.31227	241.25522	601.01471	156.02895	320.53186	621.24030	169.40784	296.95334	576.17841	191.06784	275.53494	547.03699	139.99838	-217.21811	1133.29004	175.61745	-235.51680	986.49225	199.91383	-159.16550	973.12360	84.30978	-220.92932	931.15472	87.26803	-260.64191	839.49194	31.21782	-204.35913	801.93799	20.78823	-254.16547	778.85669	-3.66260	-212.68703	768.74835	-19.85795	-191.85826	731.44208	-27.22912	-184.78395	682.71838	-16.33263	-258.04922	696.35168	-22.31318	-246.58568	657.32983	-15.72671	-216.47366	622.15448	287.13904	50.95536	886.65515	85.87982	185.41524	950.56836	121.18417	-130.25607	942.59857	0.60471	217.86943	582.15930	-88.42194	142.63046	518.96259	-56.69358	175.75294	455.72272	-64.85207	67.94722	452.21622	-75.37734	127.04128	283.42416	-18.95304	149.74571	64.09872	-36.30605	59.39819	81.76997	38.49846	97.59206	39.97845	-162.55710	125.25055	41.67159	-106.22245	80.74583	65.85529	180.97197	-161.41208	573.19409	192.45340	-140.22314	432.50687	167.03442	-23.27818	408.56424	262.71167	-79.14365	246.45056	405.76672	-92.45060	101.92754	380.74936	-4.16693	113.83788	466.30203	-38.97888	97.42336	271.68826	-65.49220	38.06743	318.28342	-28.23121	71.38390																																																																																																																															
230	1.908	67.48021	32.18794	1552.50525	-41.40874	31.86742	1459.09546	173.18504	35.32687	1463.93652	-21.01465	42.16428	1316.29895	181.74792	48.48522	1356.39246	97.06611	159.54207	1267.14221	82.45702	-56.29573	1280.80603	151.05058	234.63914	1258.11853	130.26529	-149.93336	1279.47888	228.25314	132.25510	1278.09167	228.08832	-50.75011	1282.44873	276.06186	113.64553	1196.08350	143.73549	281.32153	1113.56970	199.96355	292.19714	959.11707	225.78285	220.34866	949.88568	139.19269	291.27136	871.92328	185.60361	313.33966	794.78491	127.08180	275.25375	734.97595	142.41011	313.28870	701.64124	115.20405	274.17307	677.60809	114.49936	256.06226	640.91534	119.29404	243.18721	601.50098	143.14250	322.10971	621.73328	156.53952	300.15329	576.39777	177.46106	277.98297	547.46973	134.73422	-215.15981	1134.88867	171.14789	-232.75784	988.06030	194.04924	-156.50351	974.96832	80.67346	-219.07396	931.49750	83.08994	-258.16107	840.50397	24.88419	-203.71632	802.24561	17.19571	-251.80611	779.03552	-7.26143	-211.21451	769.20563	-23.36926	-190.46513	733.41699	-30.64450	-182.95554	681.65424	-19.66425	-256.59088	697.08997	-25.66470	-243.96870	657.41095	-18.77988	-214.34322	621.89484	278.93011	52.99123	887.04858	79.02600	188.46355	953.06470	110.93029	-131.11841	944.09583	-3.86872	219.86769	582.87494	-92.58173	145.30229	519.22754	-61.23909	175.68054	456.37271	-69.49680	70.07481	453.22406	-76.98370	126.21949	282.73904	-19.72650	150.13507	64.44814	-36.86374	59.28135	81.88132	38.23672	97.67894	40.21390	-163.04698	123.21611	41.01218	-106.36736	80.70481	65.92392	170.88786	-161.90590	573.19440	181.60818	-142.44778	432.40485	154.76515	-26.88488	407.89291	256.47324	-79.65248	247.07465	401.73752	-92.81474	106.33732	376.96945	-4.75565	117.36427	462.53168	-39.03551	104.61095	271.26050	-65.36680	38.30524	315.35938	-29.10927	72.83701																																																																																																																															
